HIERARCHY
ROOT mixamorig:Hips
{
	OFFSET 0.000000 201.639420 0.000000
	CHANNELS 6 Xposition Yposition Zposition Xrotation Yrotation Zrotation
	JOINT mixamorig:Spine
	{
		OFFSET 0.006200 19.524994 -2.481800
		CHANNELS 3 Xrotation Yrotation Zrotation
		JOINT mixamorig:Spine1
		{
			OFFSET -0.000900 22.835007 -2.825400
			CHANNELS 3 Xrotation Yrotation Zrotation
			JOINT mixamorig:Spine2
			{
				OFFSET -0.020600 26.552490 -3.193300
				CHANNELS 3 Xrotation Yrotation Zrotation
				JOINT mixamorig:Neck
				{
					OFFSET -0.060000 30.701813 1.352200
					CHANNELS 3 Xrotation Yrotation Zrotation
					JOINT mixamorig:Head
					{
						OFFSET -0.087200 22.547607 3.670900
						CHANNELS 3 Xrotation Yrotation Zrotation
						JOINT mixamorig:HeadTop_End
						{
							OFFSET -0.830600 40.355194 7.893500
							CHANNELS 3 Xrotation Yrotation Zrotation
							End Site
							{
								OFFSET 0.000000 30.592346 0.000000
							}
						}
						JOINT mixamorig:RightEye
						{
							OFFSET -6.302100 18.118591 16.197100
							CHANNELS 3 Xrotation Yrotation Zrotation
							End Site
							{
								OFFSET 0.000000 30.592346 0.000000
							}
						}
						JOINT mixamorig:LeftEye
						{
							OFFSET 6.741500 18.382690 16.401899
							CHANNELS 3 Xrotation Yrotation Zrotation
							End Site
							{
								OFFSET 0.000000 30.592346 0.000000
							}
						}
					}
				}
				JOINT mixamorig:LeftShoulder
				{
					OFFSET 11.924900 18.230499 1.425400
					CHANNELS 3 Xrotation Yrotation Zrotation
					JOINT mixamorig:LeftArm
					{
						OFFSET 25.435989 -0.697632 -5.229300
						CHANNELS 3 Xrotation Yrotation Zrotation
						JOINT mixamorig:LeftForeArm
						{
							OFFSET 54.684776 0.000000 0.000000
							CHANNELS 3 Xrotation Yrotation Zrotation
							JOINT mixamorig:LeftHand
							{
								OFFSET 55.098175 0.000000 0.000000
								CHANNELS 3 Xrotation Yrotation Zrotation
								JOINT mixamorig:LeftHandMiddle1
								{
									OFFSET 23.369751 0.000000 0.000000
									CHANNELS 3 Xrotation Yrotation Zrotation
									JOINT mixamorig:LeftHandMiddle2
									{
										OFFSET 6.378677 0.000000 0.000000
										CHANNELS 3 Xrotation Yrotation Zrotation
										JOINT mixamorig:LeftHandMiddle3
										{
											OFFSET 6.148331 0.000000 0.000000
											CHANNELS 3 Xrotation Yrotation Zrotation
											JOINT mixamorig:LeftHandMiddle4
											{
												OFFSET 6.582504 0.000000 0.000000
												CHANNELS 3 Xrotation Yrotation Zrotation
												End Site
												{
													OFFSET -1.168900 6.395691 1.028606
												}
											}
										}
									}
								}
								JOINT mixamorig:LeftHandThumb1
								{
									OFFSET 7.235672 -3.848206 5.434273
									CHANNELS 3 Xrotation Yrotation Zrotation
									JOINT mixamorig:LeftHandThumb2
									{
										OFFSET 6.568451 -3.792297 3.792300
										CHANNELS 3 Xrotation Yrotation Zrotation
										JOINT mixamorig:LeftHandThumb3
										{
											OFFSET 6.063080 -3.500519 3.500518
											CHANNELS 3 Xrotation Yrotation Zrotation
											JOINT mixamorig:LeftHandThumb4
											{
												OFFSET 4.793182 -2.767334 2.767349
												CHANNELS 3 Xrotation Yrotation Zrotation
												End Site
												{
													OFFSET 0.101639 6.054260 1.275483
												}
											}
										}
									}
								}
								JOINT mixamorig:LeftHandIndex1
								{
									OFFSET 23.101074 -0.309540 4.992809
									CHANNELS 3 Xrotation Yrotation Zrotation
									JOINT mixamorig:LeftHandIndex2
									{
										OFFSET 6.226883 0.000000 0.000000
										CHANNELS 3 Xrotation Yrotation Zrotation
										JOINT mixamorig:LeftHandIndex3
										{
											OFFSET 6.094330 0.000000 0.000000
											CHANNELS 3 Xrotation Yrotation Zrotation
											JOINT mixamorig:LeftHandIndex4
											{
												OFFSET 5.482605 0.000000 0.000000
												CHANNELS 3 Xrotation Yrotation Zrotation
												End Site
												{
													OFFSET -1.427902 5.233032 0.797164
												}
											}
										}
									}
								}
								JOINT mixamorig:LeftHandRing1
								{
									OFFSET 22.299240 0.021149 -3.964172
									CHANNELS 3 Xrotation Yrotation Zrotation
									JOINT mixamorig:LeftHandRing2
									{
										OFFSET 6.321869 0.000000 0.000000
										CHANNELS 3 Xrotation Yrotation Zrotation
										JOINT mixamorig:LeftHandRing3
										{
											OFFSET 5.899796 0.000000 0.000000
											CHANNELS 3 Xrotation Yrotation Zrotation
											JOINT mixamorig:LeftHandRing4
											{
												OFFSET 6.517899 0.000000 0.000000
												CHANNELS 3 Xrotation Yrotation Zrotation
												End Site
												{
													OFFSET -1.637299 6.232208 0.980890
												}
											}
										}
									}
								}
								JOINT mixamorig:LeftHandPinky1
								{
									OFFSET 20.463791 -0.302338 -8.562233
									CHANNELS 3 Xrotation Yrotation Zrotation
									JOINT mixamorig:LeftHandPinky2
									{
										OFFSET 6.908646 0.000000 0.000000
										CHANNELS 3 Xrotation Yrotation Zrotation
										JOINT mixamorig:LeftHandPinky3
										{
											OFFSET 4.622849 0.000000 0.000000
											CHANNELS 3 Xrotation Yrotation Zrotation
											JOINT mixamorig:LeftHandPinky4
											{
												OFFSET 5.216080 0.000000 0.000000
												CHANNELS 3 Xrotation Yrotation Zrotation
												End Site
												{
													OFFSET -0.606308 5.116241 0.814926
												}
											}
										}
									}
								}
							}
						}
					}
				}
				JOINT mixamorig:RightShoulder
				{
					OFFSET -12.001300 18.284088 1.348900
					CHANNELS 3 Xrotation Yrotation Zrotation
					JOINT mixamorig:RightArm
					{
						OFFSET -25.308500 -0.751312 -5.164599
						CHANNELS 3 Xrotation Yrotation Zrotation
						JOINT mixamorig:RightForeArm
						{
							OFFSET -54.684429 0.000000 0.000000
							CHANNELS 3 Xrotation Yrotation Zrotation
							JOINT mixamorig:RightHand
							{
								OFFSET -55.150291 0.000000 0.000000
								CHANNELS 3 Xrotation Yrotation Zrotation
								JOINT mixamorig:RightHandMiddle1
								{
									OFFSET -23.317566 0.000000 0.000000
									CHANNELS 3 Xrotation Yrotation Zrotation
									JOINT mixamorig:RightHandMiddle2
									{
										OFFSET -6.378403 0.000000 0.000000
										CHANNELS 3 Xrotation Yrotation Zrotation
										JOINT mixamorig:RightHandMiddle3
										{
											OFFSET -6.148193 0.000000 0.000000
											CHANNELS 3 Xrotation Yrotation Zrotation
											JOINT mixamorig:RightHandMiddle4
											{
												OFFSET -6.583389 0.000000 0.000000
												CHANNELS 3 Xrotation Yrotation Zrotation
												End Site
												{
													OFFSET 1.171692 6.395905 1.029786
												}
											}
										}
									}
								}
								JOINT mixamorig:RightHandThumb1
								{
									OFFSET -7.190521 -3.860474 5.435846
									CHANNELS 3 Xrotation Yrotation Zrotation
									JOINT mixamorig:RightHandThumb2
									{
										OFFSET -6.567429 -3.791718 3.791708
										CHANNELS 3 Xrotation Yrotation Zrotation
										JOINT mixamorig:RightHandThumb3
										{
											OFFSET -6.062469 -3.500153 3.500166
											CHANNELS 3 Xrotation Yrotation Zrotation
											JOINT mixamorig:RightHandThumb4
											{
												OFFSET -4.792618 -2.767029 2.767022
												CHANNELS 3 Xrotation Yrotation Zrotation
												End Site
												{
													OFFSET -0.100327 6.053253 1.276754
												}
											}
										}
									}
								}
								JOINT mixamorig:RightHandIndex1
								{
									OFFSET -23.048981 -0.310791 4.992554
									CHANNELS 3 Xrotation Yrotation Zrotation
									JOINT mixamorig:RightHandIndex2
									{
										OFFSET -6.227539 0.000000 0.000000
										CHANNELS 3 Xrotation Yrotation Zrotation
										JOINT mixamorig:RightHandIndex3
										{
											OFFSET -6.095047 0.000000 0.000000
											CHANNELS 3 Xrotation Yrotation Zrotation
											JOINT mixamorig:RightHandIndex4
											{
												OFFSET -5.484772 0.000000 0.000000
												CHANNELS 3 Xrotation Yrotation Zrotation
												End Site
												{
													OFFSET 1.420593 5.237305 0.797056
												}
											}
										}
									}
								}
								JOINT mixamorig:RightHandRing1
								{
									OFFSET -22.246323 0.020569 -3.963762
									CHANNELS 3 Xrotation Yrotation Zrotation
									JOINT mixamorig:RightHandRing2
									{
										OFFSET -6.322128 0.000000 0.000000
										CHANNELS 3 Xrotation Yrotation Zrotation
										JOINT mixamorig:RightHandRing3
										{
											OFFSET -5.900024 0.000000 0.000000
											CHANNELS 3 Xrotation Yrotation Zrotation
											JOINT mixamorig:RightHandRing4
											{
												OFFSET -6.518356 0.000000 0.000000
												CHANNELS 3 Xrotation Yrotation Zrotation
												End Site
												{
													OFFSET 1.636398 6.232697 0.982186
												}
											}
										}
									}
								}
								JOINT mixamorig:RightHandPinky1
								{
									OFFSET -20.411011 -0.303314 -8.561701
									CHANNELS 3 Xrotation Yrotation Zrotation
									JOINT mixamorig:RightHandPinky2
									{
										OFFSET -6.907349 0.000000 0.000000
										CHANNELS 3 Xrotation Yrotation Zrotation
										JOINT mixamorig:RightHandPinky3
										{
											OFFSET -4.623840 0.000000 0.000000
											CHANNELS 3 Xrotation Yrotation Zrotation
											JOINT mixamorig:RightHandPinky4
											{
												OFFSET -5.218353 0.000000 0.000000
												CHANNELS 3 Xrotation Yrotation Zrotation
												End Site
												{
													OFFSET 0.602097 5.118835 0.816273
												}
											}
										}
									}
								}
							}
						}
					}
				}
			}
		}
	}
	JOINT mixamorig:LeftUpLeg
	{
		OFFSET 18.168400 -13.561905 -0.039000
		CHANNELS 3 Xrotation Yrotation Zrotation
		JOINT mixamorig:LeftLeg
		{
			OFFSET 0.577358 -80.825211 -3.695000
			CHANNELS 3 Xrotation Yrotation Zrotation
			JOINT mixamorig:LeftFoot
			{
				OFFSET -0.577356 -83.370262 -6.520700
				CHANNELS 3 Xrotation Yrotation Zrotation
				JOINT mixamorig:LeftToeBase
				{
					OFFSET 0.750401 -20.798306 25.135401
					CHANNELS 3 Xrotation Yrotation Zrotation
					JOINT mixamorig:LeftToe_End
					{
						OFFSET -0.000500 0.001200 19.917799
						CHANNELS 3 Xrotation Yrotation Zrotation
						End Site
						{
							OFFSET 0.000000 19.917805 0.000000
						}
					}
				}
			}
		}
	}
	JOINT mixamorig:RightUpLeg
	{
		OFFSET -18.162500 -13.585098 -0.041000
		CHANNELS 3 Xrotation Yrotation Zrotation
		JOINT mixamorig:RightLeg
		{
			OFFSET -0.595024 -80.945297 -3.631900
			CHANNELS 3 Xrotation Yrotation Zrotation
			JOINT mixamorig:RightFoot
			{
				OFFSET 0.595024 -83.218193 -6.561200
				CHANNELS 3 Xrotation Yrotation Zrotation
				JOINT mixamorig:RightToeBase
				{
					OFFSET -0.753601 -20.807106 25.115000
					CHANNELS 3 Xrotation Yrotation Zrotation
					JOINT mixamorig:RightToe_End
					{
						OFFSET 0.000299 0.001700 19.918200
						CHANNELS 3 Xrotation Yrotation Zrotation
						End Site
						{
							OFFSET 0.000000 19.918203 0.000000
						}
					}
				}
			}
		}
	}
}
MOTION
Frames: 4
Frame Time: 0.033333
0.156929 188.113632 -0.463284 -6.078873 -42.947205 -4.018942 5.832206 4.558732 -1.227475 11.835726 9.038085 -3.084132 11.835726 9.038081 -3.084131 -4.303061 -1.272931 0.206306 -6.271930 20.437777 -0.377161 0.000000 -0.000000 0.000000 0.000000 -0.000000 0.000000 0.000000 -0.000000 0.000000 1.387434 -0.696988 -7.876279 -14.260095 2.393801 -63.277120 9.865067 -47.524897 5.927940 16.172814 0.916345 18.795321 1.947551 9.681377 -14.539565 -0.461223 -1.564451 -21.881052 0.000008 -0.000002 -0.000005 0.000002 -0.000001 0.000001 9.163588 4.814136 -5.499029 -0.335375 0.032557 0.783653 -0.000004 0.000011 -0.000006 -0.000001 -0.000001 0.000002 -0.902036 -6.980921 -3.808446 0.026602 0.806457 -16.418902 0.000004 -0.000007 0.000004 0.000000 0.000000 0.000000 2.605827 14.896571 -31.345210 -0.570649 -2.704757 -32.012048 -0.000006 -0.000002 -0.000006 0.000001 0.000001 -0.000001 4.171044 18.494907 -34.987425 -0.706809 -5.788634 -39.372912 -0.000005 -0.000003 -0.000008 -0.000003 -0.000001 -0.000000 1.410924 9.461511 9.792742 1.220060 -24.270720 60.532927 -6.660704 41.858405 8.043848 6.225266 12.322335 11.673277 -0.670815 -2.905547 12.731494 -0.652521 1.804267 30.579508 0.000000 0.000001 0.000004 -0.000001 -0.000000 0.000001 -8.895781 -4.903206 -0.383689 7.903381 -19.189686 -2.856947 -0.000001 0.000001 -0.000006 0.000001 0.000000 -0.000002 -1.096335 -1.217229 4.525397 0.141702 -1.115732 16.942592 0.000001 0.000004 -0.000004 -0.000002 -0.000000 -0.000001 2.418893 -7.406070 21.762702 -0.995456 3.769845 37.430635 0.000001 0.000003 -0.000010 -0.000000 -0.000001 -0.000000 3.482215 -10.050674 24.322275 -1.467002 7.868264 41.092887 0.000001 -0.000001 -0.000004 -0.000001 0.000001 0.000002 -28.717384 5.478947 13.780903 35.016082 -14.076103 -0.184014 -3.699437 0.648914 -7.937968 -2.321960 -3.217400 0.803265 0.000000 0.000001 0.000000 -7.183675 -13.136792 -15.783992 34.238273 -9.301888 -0.414276 -19.368063 -3.708082 16.562731 -1.785090 -0.356691 0.333203 -0.000000 0.000004 0.000000 
0.168964 188.120255 -0.447757 -6.022195 -43.092466 -3.959020 5.823678 4.561583 -1.247378 11.819971 9.041238 -3.121164 11.819974 9.041246 -3.121167 -4.387861 -1.297854 0.163180 -6.136324 20.653464 -0.443796 -0.000001 -0.000000 -0.000000 -0.000001 -0.000000 -0.000000 -0.000001 -0.000000 -0.000000 1.389713 -0.709916 -7.876828 -14.244249 2.394026 -63.227266 9.904624 -47.573128 5.947313 16.178290 0.914642 18.773777 1.939544 9.651371 -14.916317 -0.474083 -1.601148 -22.238807 0.000009 0.000001 -0.000006 -0.000002 -0.000001 0.000002 9.414842 5.159734 -5.469227 -0.170209 0.412557 0.856133 0.000000 0.000007 -0.000004 -0.000002 -0.000003 0.000000 -0.885485 -6.977776 -4.153081 0.012759 0.761532 -16.807791 0.000002 -0.000010 0.000008 0.000001 0.000003 -0.000004 2.589848 14.871388 -31.688850 -0.588513 -2.733076 -32.406041 -0.000005 -0.000002 -0.000003 -0.000002 -0.000001 -0.000001 4.151081 18.482347 -35.342643 -0.711834 -5.794525 -39.734567 -0.000008 -0.000002 -0.000006 -0.000001 -0.000001 0.000002 1.393258 9.523883 9.813711 1.197319 -24.211977 60.500702 -6.605040 41.712696 8.037640 6.258873 12.244947 11.498242 -0.663459 -2.937941 12.524964 -0.646092 1.793337 30.374534 -0.000001 0.000001 0.000004 0.000000 -0.000002 -0.000001 -8.538358 -4.895345 -0.106985 7.856111 -19.205495 -2.927865 0.000001 0.000000 -0.000007 -0.000001 0.000000 -0.000000 -1.093475 -1.232168 4.323057 0.143917 -1.122937 16.867301 0.000001 0.000003 -0.000004 -0.000001 0.000001 -0.000002 2.430976 -7.439407 21.599222 -0.980313 3.750005 37.198945 0.000001 0.000005 -0.000009 -0.000000 0.000001 0.000002 3.495824 -10.078035 24.121597 -1.450807 7.858623 40.884607 0.000001 0.000000 -0.000007 0.000001 0.000001 0.000003 -28.706059 5.479279 13.738758 35.012000 -13.905449 -0.128502 -3.730091 0.659491 -8.017863 -2.321965 -3.217365 0.803262 0.000000 -0.000004 0.000000 -7.313511 -13.123270 -15.785315 34.252197 -9.193837 -0.539349 -19.359821 -3.712542 16.583704 -1.785097 -0.356756 0.333203 -0.000000 0.000002 0.000000 
0.183043 188.129807 -0.441671 -5.927368 -43.230566 -3.869271 5.815839 4.540726 -1.260620 11.803852 8.997835 -3.142078 11.803859 8.997831 -3.142081 -4.445938 -1.219814 0.079431 -6.011191 21.010849 -0.587840 -0.000001 -0.000000 -0.000000 -0.000001 -0.000000 -0.000000 -0.000001 -0.000000 -0.000000 1.389178 -0.727274 -7.903652 -14.193229 2.416421 -63.198176 9.925535 -47.632684 5.957011 16.172597 0.897518 18.734147 1.931758 9.622884 -15.274530 -0.485787 -1.634059 -22.559164 0.000003 0.000000 -0.000006 -0.000001 -0.000000 0.000000 9.612836 5.471842 -5.408006 0.016392 0.828479 0.923190 -0.000003 0.000010 -0.000007 0.000002 0.000001 -0.000005 -0.875227 -6.973915 -4.482529 0.001036 0.723421 -17.138034 0.000004 -0.000009 0.000008 -0.000002 0.000002 -0.000004 2.572685 14.846039 -32.076354 -0.602615 -2.753005 -32.732336 -0.000005 -0.000002 -0.000005 -0.000003 0.000001 -0.000001 4.126637 18.452157 -35.689596 -0.716419 -5.799711 -40.056037 -0.000006 -0.000003 -0.000011 0.000002 -0.000001 0.000001 1.394626 9.568492 9.789852 1.143545 -24.160807 60.514028 -6.548430 41.493020 7.985922 6.402219 12.095246 11.345559 -0.662048 -2.944659 12.279121 -0.639591 1.782192 30.166309 -0.000002 -0.000000 0.000001 0.000000 0.000000 -0.000004 -8.318012 -4.994417 0.056190 7.878551 -19.196909 -2.904259 -0.000001 0.000000 -0.000008 0.000000 -0.000001 -0.000000 -1.090327 -1.248973 4.100314 0.149841 -1.142135 16.668237 0.000003 0.000003 -0.000004 -0.000000 -0.000002 -0.000004 2.436540 -7.463099 21.336550 -0.964567 3.730784 36.948065 0.000001 -0.000000 -0.000008 -0.000000 0.000001 -0.000002 3.510596 -10.105593 23.885484 -1.435359 7.845757 40.642344 0.000002 -0.000002 -0.000001 -0.000001 -0.000000 0.000001 -28.733663 5.474316 13.698040 35.000328 -13.744263 -0.087148 -3.751911 0.662562 -8.078114 -2.321959 -3.217347 0.803262 0.000000 -0.000001 -0.000000 -7.463042 -13.082736 -15.780192 34.260676 -9.121567 -0.662914 -19.340924 -3.721708 16.622370 -1.795663 -0.370162 0.345642 -0.000000 0.000000 0.000000 
0.195843 188.116180 -0.435955 -5.856309 -43.301702 -3.811869 5.817320 4.488658 -1.264042 11.804313 8.893252 -3.142281 11.804315 8.893253 -3.142279 -4.539880 -1.073139 0.023832 -5.845982 21.499246 -0.825202 -0.000001 0.000000 0.000000 -0.000001 0.000000 0.000000 -0.000001 0.000000 0.000000 1.389976 -0.732064 -7.903792 -14.170292 2.428508 -63.191715 9.950693 -47.720729 5.983824 16.163124 0.902793 18.671089 1.925151 9.599231 -15.572526 -0.496509 -1.663875 -22.849322 0.000008 -0.000000 -0.000004 -0.000001 -0.000001 0.000000 9.751589 5.865618 -5.336023 0.265746 1.315476 0.943842 0.000000 0.000006 0.000000 0.000001 -0.000000 -0.000004 -0.876907 -6.996496 -4.801772 -0.008986 0.690760 -17.421116 0.000000 -0.000010 0.000007 -0.000001 -0.000001 -0.000001 2.562289 14.834539 -32.365712 -0.615255 -2.771603 -33.014256 -0.000002 0.000001 -0.000002 -0.000002 0.000000 0.000001 4.123865 18.451186 -35.969248 -0.720135 -5.804141 -40.326164 -0.000006 -0.000002 -0.000010 -0.000001 -0.000000 0.000004 1.380857 9.601774 9.807591 1.087387 -24.124677 60.474666 -6.503704 41.341690 7.946005 6.494108 11.920062 11.254824 -0.659945 -2.954606 12.062229 -0.628384 1.761159 29.896243 -0.000002 -0.000002 0.000005 0.000001 0.000000 -0.000000 -8.221467 -5.202203 0.120562 7.992736 -19.163182 -2.789690 0.000000 0.000001 -0.000005 0.000000 0.000000 0.000000 -1.087389 -1.266398 3.874533 0.157436 -1.168032 16.400514 0.000003 0.000005 -0.000007 -0.000001 0.000001 -0.000001 2.434449 -7.473443 21.077078 -0.952583 3.714288 36.710723 0.000001 0.000001 -0.000011 -0.000000 -0.000000 -0.000001 3.526836 -10.136456 23.624050 -1.421805 7.830039 40.374443 0.000003 -0.000000 -0.000005 -0.000001 -0.000000 -0.000005 -28.781485 5.427448 13.634644 35.055328 -13.607847 -0.004328 -3.799205 0.664381 -8.146741 -2.321966 -3.217387 0.803263 -0.000000 -0.000001 -0.000000 -7.578296 -13.068931 -15.755826 34.297406 -9.086165 -0.776968 -19.346028 -3.735090 16.667055 -1.806781 -0.381004 0.356361 0.000000 0.000001 0.000000 
